<?xml version="1.0" standalone="no"?>
<!DOCTYPE svg PUBLIC "-//W3C//DTD SVG 20010904//EN"
 "http://www.w3.org/TR/2001/REC-SVG-20010904/DTD/svg10.dtd">
<svg version="1.0" xmlns="http://www.w3.org/2000/svg"
 width="1200.000000pt" height="1200.000000pt" viewBox="0 0 1200.000000 1200.000000"
 preserveAspectRatio="xMidYMid meet">
<metadata>
Created by potrace 1.14, written by Peter Selinger 2001-2017
</metadata>
<g transform="translate(0.000000,1200.000000) scale(0.100000,-0.100000)"
fill="#000000" stroke="none">
<path d="M6655 11760 c-3 -6 -53 -10 -110 -10 -58 0 -107 -4 -110 -10 -3 -5
-17 -10 -31 -10 -13 0 -24 -4 -24 -10 0 -5 -16 -1 -35 10 -38 22 -80 26 -90
10 -3 -5 -31 -10 -61 -10 -30 0 -54 -4 -54 -10 0 -5 -9 -10 -20 -10 -20 0 -51
-14 -80 -36 -13 -11 -93 -25 -127 -23 -103 5 -159 -4 -183 -31 -8 -9 -30 -23
-47 -31 -18 -7 -33 -20 -33 -26 0 -9 -16 -13 -48 -13 -49 0 -82 -20 -82 -48 0
-7 -11 -12 -24 -12 -14 0 -28 -4 -31 -10 -3 -5 -17 -10 -29 -10 -13 0 -29 -7
-36 -15 -7 -8 -19 -15 -26 -15 -8 0 -14 -4 -14 -10 0 -5 -9 -10 -20 -10 -11 0
-20 -3 -20 -7 0 -16 -56 -33 -105 -33 -39 0 -56 -5 -70 -20 -10 -11 -23 -20
-30 -20 -6 0 -22 -11 -35 -25 -13 -14 -29 -25 -35 -25 -15 0 -55 -43 -55 -58
0 -9 -41 -12 -147 -12 -142 -1 -149 -2 -175 -25 -16 -13 -28 -33 -28 -43 0
-34 -33 -60 -81 -64 -34 -2 -46 -8 -54 -25 -8 -20 -29 -28 -57 -25 -3 1 -12
-5 -19 -14 -9 -11 -9 -18 -1 -26 11 -11 2 -34 -27 -70 -17 -22 -54 -23 -71 -2
-22 25 -71 14 -91 -21 -10 -16 -18 -40 -18 -51 -1 -19 -7 -22 -48 -23 -79 -2
-124 -12 -131 -30 -22 -58 -80 -111 -122 -111 -10 0 -23 -7 -30 -15 -19 -22
-70 -45 -102 -45 -34 0 -76 -20 -102 -49 -11 -12 -30 -21 -43 -21 -12 0 -23
-4 -23 -10 0 -5 -20 -10 -44 -10 -26 0 -48 -6 -56 -15 -7 -8 -18 -15 -24 -15
-12 0 -36 -46 -36 -70 0 -25 -21 -40 -56 -40 -23 0 -38 -8 -55 -30 -14 -17
-34 -30 -46 -30 -14 0 -23 -6 -23 -15 0 -8 -6 -15 -14 -15 -7 0 -20 -7 -27
-16 -7 -9 -23 -20 -36 -25 -13 -5 -23 -15 -23 -23 0 -7 -8 -16 -17 -20 -10 -3
-31 -14 -48 -25 -16 -11 -39 -20 -50 -20 -11 -1 -26 -10 -33 -21 -7 -11 -17
-20 -24 -20 -18 0 -47 -31 -42 -44 3 -7 -8 -21 -23 -31 -15 -10 -34 -27 -42
-37 -7 -11 -19 -17 -26 -14 -8 3 -24 -3 -37 -13 -13 -9 -39 -25 -58 -34 -19
-8 -53 -34 -75 -56 -21 -23 -45 -41 -52 -41 -7 0 -13 -4 -13 -10 0 -5 -7 -10
-16 -10 -29 0 -64 -54 -64 -98 0 -47 65 -92 133 -92 24 0 49 -6 56 -12 11 -10
14 -10 18 0 3 6 13 12 24 12 10 0 19 5 19 10 0 6 6 10 13 10 15 0 97 81 97 95
0 12 47 35 71 35 9 0 22 7 29 15 7 8 17 15 23 15 14 0 97 83 97 97 0 7 6 13
13 13 7 0 19 9 27 20 8 11 24 20 35 20 12 0 25 4 31 10 5 5 54 11 109 12 l100
3 14 33 c8 17 21 32 28 32 8 0 29 16 47 35 31 33 38 35 95 35 34 0 61 4 61 10
0 6 20 10 44 10 25 0 48 5 51 10 3 6 23 10 44 10 51 0 69 21 113 128 14 34 35
40 68 20 16 -10 24 -10 40 0 11 6 30 12 43 12 13 0 32 9 41 19 10 11 30 21 44
23 15 2 32 14 41 31 15 26 99 77 128 77 7 0 22 9 33 20 21 21 50 27 50 10 0
-5 9 -10 20 -10 11 0 20 -4 20 -10 0 -16 80 -12 86 5 8 19 56 9 109 -22 22
-13 48 -26 58 -30 11 -3 17 -16 17 -34 0 -15 5 -31 10 -34 6 -3 10 -19 10 -35
0 -16 9 -45 20 -65 13 -22 20 -54 20 -86 0 -40 5 -54 25 -73 20 -19 25 -33 25
-75 0 -28 5 -51 10 -51 6 0 10 -58 10 -154 0 -93 4 -157 10 -161 6 -3 10 -19
10 -35 0 -16 4 -32 10 -35 6 -3 10 -17 10 -30 0 -13 5 -27 11 -30 6 -4 10 -45
9 -103 -1 -54 0 -101 1 -107 5 -28 -4 -182 -12 -197 -7 -13 -22 -18 -58 -18
-35 0 -53 -5 -66 -19 -9 -11 -33 -21 -53 -23 -27 -2 -40 -10 -53 -33 -10 -16
-18 -40 -18 -52 -1 -21 -6 -23 -54 -23 -29 0 -59 -6 -65 -12 -10 -10 -17 -10
-32 0 -24 14 -212 17 -238 2 -9 -5 -44 -14 -77 -20 -104 -19 -115 -22 -115
-31 0 -5 -15 -9 -33 -9 -21 0 -41 -8 -52 -20 -10 -11 -26 -20 -35 -20 -23 0
-80 -29 -80 -41 0 -5 -9 -9 -20 -9 -11 0 -20 -4 -20 -10 0 -6 -30 -10 -69 -10
-39 0 -73 -4 -76 -10 -3 -5 -22 -10 -41 -10 -19 0 -34 -4 -34 -10 0 -5 -9 -10
-20 -10 -11 0 -20 -5 -20 -11 0 -7 -33 -10 -97 -8 -55 1 -110 -3 -126 -10 -28
-11 -28 -11 -25 -93 3 -70 6 -83 20 -83 9 0 20 -4 24 -8 4 -4 47 -7 95 -7 48
0 91 -4 94 -10 3 -5 26 -10 50 -10 24 0 47 5 50 10 3 6 15 10 26 10 10 0 19
-4 19 -10 0 -5 12 -10 26 -10 17 0 28 -6 31 -20 6 -21 47 -28 58 -10 3 6 17
10 30 10 13 0 27 5 30 10 3 6 15 10 26 10 10 0 19 -4 19 -10 0 -5 9 -10 20
-10 11 0 35 -9 55 -20 29 -16 54 -20 133 -20 59 0 102 -4 109 -11 9 -9 26 2
66 40 30 28 58 51 62 51 5 0 17 8 27 17 28 25 43 -2 16 -29 -11 -11 -17 -26
-14 -33 3 -8 1 -17 -4 -20 -17 -11 -11 -41 13 -63 24 -23 61 -29 72 -12 3 6
37 10 74 10 59 0 70 3 91 25 13 14 29 25 37 25 7 0 13 5 13 10 0 6 25 10 55
10 30 0 55 -4 55 -10 0 -5 7 -10 16 -10 9 0 14 -3 12 -7 -3 -5 -11 -23 -18
-40 -10 -23 -21 -33 -37 -33 -12 0 -25 -4 -28 -10 -3 -5 -16 -10 -29 -10 -23
0 -71 -43 -90 -82 -6 -13 -23 -25 -36 -26 -14 -2 -29 -7 -35 -12 -13 -10 -103
-24 -138 -21 -53 5 -139 -57 -171 -121 -6 -13 -23 -24 -36 -26 -14 -2 -29 -8
-34 -13 -6 -5 -20 -9 -33 -9 -13 0 -23 -4 -23 -9 0 -5 -8 -12 -17 -15 -29 -10
-62 -32 -91 -58 -33 -30 -134 -78 -164 -78 -22 0 -108 -75 -108 -95 -1 -13
-129 -75 -156 -75 -11 0 -31 -11 -44 -25 -13 -14 -29 -25 -35 -25 -7 0 -20 -9
-30 -20 -10 -11 -23 -20 -30 -20 -14 0 -44 -31 -59 -63 -9 -17 -22 -23 -57
-25 -47 -3 -56 -11 -73 -65 -3 -11 -14 -21 -24 -24 -10 -2 -22 -14 -27 -25 -6
-12 -19 -26 -30 -32 -11 -6 -24 -17 -28 -23 -4 -7 -17 -13 -27 -13 -11 0 -20
-4 -20 -10 0 -5 -8 -10 -18 -10 -47 0 -138 -74 -147 -120 -6 -30 -11 -34 -62
-50 -24 -7 -45 -21 -48 -30 -3 -10 -15 -20 -26 -23 -11 -3 -23 -14 -25 -24 -3
-10 -20 -25 -37 -33 -18 -7 -34 -16 -37 -19 -3 -3 -14 -11 -24 -17 -11 -6 -24
-19 -30 -29 -6 -10 -21 -29 -33 -41 -13 -11 -23 -29 -23 -38 0 -12 -10 -16
-40 -16 -50 0 -58 16 -31 64 28 48 27 87 -2 114 -26 24 -94 31 -114 11 -6 -6
-22 -17 -34 -23 -13 -6 -29 -22 -35 -35 -6 -12 -26 -37 -43 -55 -17 -17 -31
-40 -31 -50 0 -10 -8 -26 -18 -35 -10 -9 -21 -24 -25 -34 -4 -9 -15 -20 -24
-24 -10 -4 -25 -14 -33 -23 -8 -9 -23 -19 -33 -23 -9 -4 -20 -15 -24 -24 -4
-10 -15 -25 -25 -34 -10 -9 -18 -24 -18 -33 0 -9 -4 -16 -10 -16 -5 0 -10 -6
-10 -13 0 -21 -44 -57 -68 -57 -15 0 -22 -6 -22 -20 0 -12 -7 -20 -17 -20 -11
0 -24 -15 -34 -38 -11 -26 -28 -45 -55 -59 -39 -20 -51 -42 -53 -98 -1 -23 -8
-33 -31 -43 -18 -8 -30 -21 -30 -33 0 -10 -4 -19 -10 -19 -5 0 -10 -5 -10 -10
0 -13 -51 -59 -66 -60 -22 0 -74 -66 -74 -93 0 -20 -7 -30 -25 -37 -14 -5 -28
-17 -32 -26 -3 -9 -21 -33 -39 -53 -19 -20 -34 -41 -34 -47 0 -14 -63 -74 -78
-74 -7 0 -12 -6 -12 -13 0 -7 -13 -26 -30 -42 -20 -19 -30 -39 -30 -59 -1 -33
-20 -66 -39 -66 -6 0 -11 -13 -11 -30 0 -16 -3 -30 -7 -30 -5 0 -19 -25 -33
-55 -19 -42 -30 -55 -46 -55 -13 0 -24 -8 -27 -20 -3 -11 -17 -24 -31 -30 -14
-5 -26 -16 -26 -23 0 -7 -11 -24 -25 -37 -17 -16 -25 -34 -25 -58 l0 -35 53 7
c43 6 59 14 93 47 50 49 87 51 92 6 4 -33 42 -61 72 -52 11 3 20 12 20 19 0 7
14 25 30 41 17 16 30 39 30 52 0 17 6 23 23 23 24 0 47 37 47 78 0 22 59 92
78 92 5 0 15 11 22 25 7 14 19 25 27 25 7 0 18 11 23 24 5 13 18 27 29 31 19
6 21 14 21 91 0 78 2 85 22 93 31 11 55 3 78 -27 19 -23 20 -35 14 -146 -4
-67 -10 -125 -15 -130 -5 -6 -9 -24 -9 -41 0 -37 -26 -94 -46 -102 -10 -3 -14
-22 -14 -59 0 -40 -4 -54 -14 -54 -10 0 -16 -13 -18 -37 -3 -32 -9 -40 -41
-57 -23 -12 -41 -16 -45 -11 -4 6 -19 16 -34 24 -25 13 -30 12 -48 -4 -25 -22
-50 -71 -50 -97 0 -10 -4 -18 -10 -18 -14 0 -12 -54 2 -68 7 -7 22 -12 35 -12
32 0 31 -39 -2 -70 -14 -13 -25 -34 -25 -47 0 -13 -6 -23 -13 -23 -7 0 -23
-10 -36 -21 -18 -17 -25 -19 -34 -9 -9 10 -9 14 1 17 18 7 15 23 -10 44 -26
23 -51 24 -68 4 -7 -8 -18 -15 -25 -15 -22 0 -40 -29 -27 -42 21 -21 14 -100
-13 -155 -15 -28 -33 -57 -40 -63 -19 -16 -19 -44 0 -60 15 -13 45 -67 45 -82
0 -12 -26 -38 -37 -38 -11 0 -64 -57 -80 -87 -7 -13 -13 -35 -13 -51 0 -16
-12 -53 -26 -82 -22 -45 -25 -64 -21 -107 4 -38 2 -55 -9 -64 -18 -14 -19
-130 -2 -147 9 -9 9 -15 0 -24 -15 -15 -17 -184 -2 -193 13 -8 13 -72 0 -80
-6 -3 -10 -17 -10 -30 0 -13 -4 -27 -10 -30 -13 -8 -13 -182 0 -190 13 -8 13
-72 0 -80 -6 -4 -10 -53 -10 -114 0 -100 2 -109 20 -114 32 -8 34 -33 6 -89
-22 -45 -26 -65 -26 -144 0 -51 5 -96 10 -99 6 -3 10 -21 10 -39 0 -19 7 -47
15 -62 8 -16 15 -36 15 -45 0 -9 13 -30 29 -45 16 -16 31 -40 33 -54 3 -22 10
-26 55 -33 50 -8 53 -10 53 -38 0 -16 5 -29 10 -29 6 0 10 -9 10 -20 0 -18
-11 -25 -34 -21 -12 3 -76 -60 -76 -75 0 -6 7 -14 15 -18 8 -3 15 -12 15 -19
0 -20 33 -47 58 -47 12 0 22 -4 22 -10 0 -5 7 -10 15 -10 8 0 15 -7 15 -15 0
-13 20 -15 123 -15 106 0 126 -3 139 -17 18 -21 29 -54 32 -94 1 -18 16 -44
39 -67 20 -21 37 -43 37 -50 0 -7 5 -12 10 -12 6 0 10 -20 10 -45 l0 -45 76 0
c72 0 77 -2 105 -31 26 -28 33 -41 31 -60 -1 -3 12 -19 28 -34 17 -16 30 -34
30 -39 0 -27 95 -47 117 -25 18 18 33 1 33 -36 0 -54 16 -85 44 -85 14 0 27 4
30 8 8 13 113 15 121 2 3 -5 16 -10 29 -10 44 0 89 -84 56 -105 -13 -8 -13
-45 0 -45 6 0 10 -6 10 -12 0 -7 10 -18 23 -24 76 -38 108 -60 113 -81 4 -13
10 -23 14 -23 4 0 10 -9 13 -20 8 -32 106 -27 172 9 l50 27 6 84 c3 47 6 80 7
74 1 -7 11 -14 22 -17 15 -4 20 -14 20 -41 0 -20 -4 -36 -10 -36 -5 0 -10 -7
-10 -15 0 -8 5 -15 11 -15 6 0 9 -9 6 -20 -3 -10 2 -25 10 -31 7 -7 23 -32 34
-56 11 -24 30 -48 42 -53 12 -4 44 -31 72 -59 42 -44 55 -51 87 -51 21 0 38 3
38 8 0 13 89 6 108 -9 35 -29 63 -39 105 -39 36 0 49 -6 77 -35 19 -20 44 -35
57 -35 13 0 23 -4 23 -10 0 -5 7 -10 15 -10 9 0 25 -9 37 -20 12 -11 34 -20
48 -20 16 0 37 -12 55 -30 40 -42 80 -60 131 -60 24 0 46 -4 49 -10 3 -5 17
-10 29 -10 13 0 29 -7 36 -15 7 -8 19 -15 26 -15 8 0 14 -4 14 -10 0 -5 15
-10 33 -10 37 0 66 -25 88 -77 12 -27 19 -33 46 -33 17 0 35 -5 38 -10 8 -13
95 -13 95 0 0 6 10 10 23 10 13 0 28 5 33 10 7 7 21 5 42 -5 33 -17 50 -35 33
-35 -6 0 -11 -9 -11 -20 0 -11 -4 -20 -10 -20 -16 0 -11 -26 8 -43 20 -18 82
-23 82 -7 0 13 77 13 85 0 6 -10 33 2 70 31 23 17 32 18 59 3 12 -8 15 -14 7
-18 -16 -10 -13 -65 5 -83 14 -14 17 -13 39 7 13 12 28 19 33 16 5 -3 21 3 35
14 31 25 43 25 72 2 13 -10 34 -18 47 -16 13 1 26 3 31 3 4 1 7 8 7 16 0 26
45 17 75 -15 34 -36 79 -60 110 -60 25 0 75 22 75 33 0 4 11 12 25 17 14 5 25
16 25 25 0 8 5 15 10 15 6 0 10 19 10 43 0 33 6 49 25 67 14 13 25 18 25 12 0
-7 7 -12 15 -12 8 0 20 -10 26 -22 13 -25 34 -48 43 -48 4 0 22 16 40 35 34
34 69 45 81 25 9 -14 145 -13 145 1 0 8 5 7 15 -1 11 -9 13 -16 5 -24 -5 -5
-10 -18 -10 -28 0 -11 -7 -18 -19 -18 -11 0 -23 -4 -26 -10 -3 -5 -16 -10 -29
-10 -12 0 -27 -5 -34 -12 -9 -9 -15 -9 -24 0 -24 24 -85 11 -125 -25 -15 -13
-18 -63 -4 -63 5 0 11 -9 14 -20 3 -11 13 -23 24 -27 10 -4 25 -15 34 -25 18
-20 59 -24 76 -7 6 6 22 17 35 23 12 6 29 24 37 40 7 16 21 31 31 33 10 3 20
13 23 22 2 10 14 20 26 24 20 5 21 1 21 -53 0 -53 2 -58 24 -64 50 -12 57 -1
54 88 -3 81 -3 81 -31 84 -17 2 -26 8 -24 15 3 7 9 11 14 10 6 -1 27 16 48 38
l39 39 135 0 c117 0 137 2 155 19 21 18 111 51 140 51 9 0 16 5 16 10 0 6 30
10 70 10 56 0 70 -3 70 -15 0 -9 11 -20 25 -25 14 -5 25 -16 25 -23 0 -8 9
-22 20 -32 27 -24 25 -38 -7 -52 -39 -18 -66 -16 -83 7 -8 12 -26 20 -42 20
-24 0 -28 -4 -28 -28 0 -15 5 -33 11 -39 9 -9 5 -18 -12 -35 -13 -13 -32 -27
-42 -31 -25 -10 -66 9 -76 35 -15 40 -47 61 -78 53 -15 -5 -33 -7 -40 -6 -6 1
-14 -3 -18 -9 -3 -5 -21 -10 -39 -10 -36 0 -87 -22 -106 -45 -7 -8 -17 -15
-22 -15 -5 0 -16 -7 -25 -15 -13 -14 -13 -19 1 -50 15 -31 21 -35 56 -35 21 0
42 5 45 10 12 19 50 11 60 -13 7 -14 20 -23 40 -25 17 -2 34 -8 40 -13 12 -12
65 -12 65 1 0 13 77 13 85 0 8 -13 115 -13 115 -1 0 6 64 12 148 15 276 9 332
18 332 51 0 9 9 15 23 15 28 0 80 24 97 45 7 8 16 13 20 10 4 -2 15 4 25 15
10 11 29 20 42 20 12 0 23 5 23 10 0 6 18 10 39 10 22 0 43 -4 46 -10 3 -5 26
-10 50 -10 24 0 47 5 50 10 3 6 15 10 26 10 37 0 49 24 49 94 l0 66 83 0 c46
0 88 5 94 11 8 8 13 8 17 0 14 -22 44 -10 92 39 26 27 50 47 53 45 7 -8 41 27
41 41 0 7 -8 18 -17 23 -14 8 -8 10 30 11 26 0 56 5 66 12 29 18 81 -7 81 -38
0 -13 -4 -24 -10 -24 -5 0 -10 -10 -10 -23 0 -22 -56 -87 -75 -87 -14 0 -58
-97 -51 -109 10 -15 67 -41 90 -41 12 0 30 7 40 15 11 8 32 15 46 15 32 0 92
28 85 39 -2 5 4 16 15 26 11 10 20 23 20 30 0 6 16 26 35 45 19 19 35 39 35
45 0 7 9 20 20 30 11 10 20 23 20 30 0 13 36 48 60 59 62 27 84 51 127 136 37
76 111 114 143 75 16 -20 90 -21 90 -1 0 7 7 20 16 27 13 11 34 49 38 69 5 24
24 30 92 30 41 0 84 -6 95 -12 17 -11 23 -10 26 0 3 6 17 12 32 12 30 0 81 21
81 33 0 4 8 7 18 7 11 0 34 8 53 17 19 10 39 18 44 19 6 0 15 2 20 3 6 0 21
26 35 56 25 55 60 85 101 85 10 0 21 5 24 10 3 6 19 10 34 10 41 0 91 56 91
102 0 20 5 40 10 43 6 3 10 35 10 71 0 36 -4 64 -10 64 -15 0 -12 19 4 36 10
9 17 10 21 4 10 -16 25 -1 25 26 0 17 -6 24 -19 24 -12 0 -20 9 -23 23 -6 32
1 47 23 47 13 0 19 7 19 24 0 14 5 28 11 31 6 4 10 19 9 33 -2 33 9 72 21 72
5 0 9 15 9 33 0 21 8 41 20 52 11 10 20 31 20 46 0 15 5 31 10 34 6 3 10 26
10 49 0 33 5 45 18 50 59 21 92 54 92 90 1 33 20 66 39 66 6 0 11 9 11 20 0
13 7 20 19 20 11 0 21 5 23 10 2 6 21 13 43 16 65 9 85 14 83 22 -3 13 20 58
36 71 9 7 16 20 16 27 0 8 5 14 12 14 21 0 98 83 98 105 0 12 31 52 80 100 59
59 80 86 80 106 0 25 26 59 46 59 5 0 17 17 27 38 37 76 67 127 82 138 8 6 15
18 15 26 0 8 7 28 15 45 8 16 16 39 18 51 2 12 6 25 10 28 4 4 7 27 7 50 0 25
9 59 20 79 16 29 20 54 20 134 0 89 -2 99 -22 117 -39 34 -72 45 -124 42 -40
-2 -51 -7 -59 -26 -5 -12 -15 -22 -22 -22 -6 0 -19 -10 -28 -22 -12 -18 -19
-21 -33 -12 -17 11 -30 64 -15 64 5 0 17 23 28 52 12 31 30 57 45 66 15 9 41
47 64 93 21 44 43 79 47 79 5 0 9 24 9 53 0 48 -4 57 -35 87 -22 21 -39 31
-43 24 -8 -11 -74 -44 -89 -44 -17 0 -43 -36 -43 -57 0 -12 -11 -31 -25 -44
-13 -13 -25 -29 -25 -35 0 -17 -29 -71 -45 -84 -8 -7 -15 -18 -15 -24 0 -7
-11 -23 -25 -36 -14 -13 -25 -29 -25 -37 0 -7 -4 -13 -10 -13 -5 0 -10 -9 -10
-20 0 -11 -4 -20 -8 -20 -5 0 -15 -11 -22 -25 -7 -14 -19 -25 -27 -25 -7 0
-13 -7 -13 -16 0 -41 -56 -58 -80 -24 -18 25 -50 26 -50 2 0 -11 -15 -24 -40
-35 -23 -9 -39 -21 -36 -26 3 -5 -3 -16 -14 -26 -11 -10 -20 -26 -20 -35 0
-10 -7 -23 -15 -30 -25 -21 -45 -71 -45 -115 0 -33 -6 -47 -33 -73 -18 -18
-38 -32 -44 -32 -7 0 -26 -29 -43 -65 -20 -43 -40 -69 -58 -77 -15 -7 -31 -23
-37 -36 -12 -27 -44 -29 -71 -4 -38 33 -64 42 -117 42 -41 0 -58 5 -72 20 -10
11 -21 17 -25 15 -4 -2 -15 4 -25 15 -10 11 -23 20 -30 20 -7 0 -20 9 -30 20
-22 24 -81 27 -105 5 -20 -18 -70 -5 -70 19 0 22 -48 29 -76 11 -13 -8 -32
-15 -43 -15 -21 0 -47 -44 -53 -89 -2 -13 -12 -29 -22 -35 -57 -32 -116 -93
-116 -118 0 -10 -4 -18 -10 -18 -5 0 -10 -6 -10 -13 0 -8 -9 -22 -19 -31 -11
-10 -23 -31 -26 -46 -3 -15 -15 -36 -26 -46 -10 -9 -19 -21 -19 -26 0 -12 -21
-33 -41 -40 -9 -4 -20 -23 -23 -45 -10 -51 -28 -93 -42 -93 -19 0 -44 -36 -44
-63 0 -33 -3 -34 -76 -42 -54 -6 -62 -5 -68 11 -9 26 -30 60 -49 82 -14 15
-17 40 -17 120 0 61 4 102 10 102 6 0 10 6 10 13 0 8 9 22 20 32 29 26 50 73
50 110 0 18 7 38 15 45 17 14 36 55 56 118 10 34 10 48 1 63 -7 10 -12 28 -12
39 0 11 -4 20 -9 20 -5 0 -11 9 -14 20 -4 17 -14 20 -56 20 -44 0 -53 -3 -60
-22 -5 -13 -19 -31 -30 -40 -12 -10 -21 -26 -21 -37 0 -10 -13 -32 -29 -47
-16 -16 -31 -40 -33 -53 -3 -24 -38 -50 -88 -66 -35 -11 -50 -30 -50 -63 0
-16 -9 -37 -20 -47 -11 -10 -20 -23 -20 -29 0 -7 -9 -18 -20 -26 -11 -8 -20
-23 -20 -33 0 -9 -7 -20 -15 -23 -8 -4 -15 -15 -15 -25 0 -11 -6 -29 -12 -42
-19 -33 -90 -107 -104 -107 -6 0 -14 -9 -17 -20 -3 -11 -17 -24 -31 -30 -14
-5 -25 -13 -24 -17 4 -21 -26 -64 -87 -123 -36 -36 -73 -79 -82 -97 -13 -29
-13 -34 0 -48 9 -8 32 -15 53 -15 25 0 46 -7 61 -21 l22 -22 -32 -28 c-18 -16
-39 -29 -48 -29 -19 0 -49 -31 -49 -51 0 -9 -9 -25 -20 -37 -11 -12 -20 -26
-20 -32 0 -5 -7 -10 -15 -10 -8 0 -15 -6 -15 -13 0 -39 -104 -73 -130 -43 -14
18 -130 23 -130 6 0 -5 -6 -10 -14 -10 -7 0 -19 -7 -26 -15 -7 -8 -20 -15 -29
-15 -9 0 -22 -9 -29 -20 -7 -11 -19 -20 -27 -20 -8 0 -15 -6 -15 -13 0 -15
-61 -77 -76 -77 -6 0 -23 -13 -38 -29 -16 -16 -34 -27 -40 -25 -25 10 -50 -23
-48 -62 2 -34 -1 -41 -25 -51 -15 -7 -44 -13 -65 -13 -21 0 -38 -4 -38 -10 0
-5 -9 -10 -20 -10 -11 0 -20 -4 -20 -10 0 -5 -7 -10 -15 -10 -9 0 -19 -10 -24
-22 -5 -13 -18 -32 -30 -42 -11 -11 -21 -25 -21 -31 0 -22 -41 -29 -200 -35
-155 -7 -183 -10 -196 -23 -4 -4 -22 -7 -40 -7 -18 0 -36 -4 -39 -10 -3 -6
-52 -10 -111 -10 -70 0 -104 -4 -104 -11 0 -8 -5 -7 -16 2 -9 7 -18 9 -22 3
-15 -21 -54 -36 -65 -25 -14 14 -74 14 -82 1 -3 -5 -14 -10 -24 -10 -10 0 -32
-7 -50 -16 -24 -12 -58 -16 -136 -15 -62 1 -106 -2 -110 -9 -8 -14 -108 -13
-122 1 -7 7 -28 9 -55 5 -23 -4 -68 -9 -98 -12 -30 -4 -57 -9 -60 -13 -3 -3
-15 -12 -27 -19 -27 -15 -199 -17 -208 -2 -8 13 -72 13 -80 0 -3 -6 -17 -10
-31 -10 -13 0 -33 -6 -44 -12 -16 -10 -24 -10 -40 0 -11 6 -29 12 -40 12 -11
0 -20 5 -20 10 0 6 -40 10 -99 10 -56 0 -103 4 -106 10 -3 6 -28 10 -55 10
-27 0 -52 5 -55 10 -4 6 -15 8 -26 5 -11 -4 -19 -2 -19 4 0 6 -9 11 -20 11
-11 0 -20 5 -20 10 0 6 -18 10 -40 10 -22 0 -40 -4 -40 -10 0 -6 -27 -10 -60
-10 -33 0 -60 4 -60 9 0 5 -9 11 -20 14 -11 3 -20 11 -20 19 0 12 -67 48 -89
48 -4 0 -16 9 -26 20 -10 11 -29 20 -42 20 -12 0 -23 5 -23 10 0 6 -6 10 -13
10 -8 0 -22 9 -32 20 -10 11 -23 20 -30 20 -6 0 -22 11 -35 25 -13 14 -33 25
-44 25 -12 0 -41 20 -66 45 -25 24 -50 44 -55 45 -16 0 -85 76 -85 93 0 7 -7
28 -16 45 -11 23 -24 33 -51 38 -39 7 -135 89 -156 133 -7 14 -25 32 -41 41
-16 8 -32 23 -35 31 -11 28 -59 79 -75 79 -9 0 -16 7 -16 15 0 8 -4 15 -10 15
-13 0 -80 63 -80 76 0 14 -43 54 -58 54 -7 0 -12 6 -12 13 0 7 -13 26 -29 41
-24 23 -29 38 -33 87 -3 43 -10 65 -26 82 -12 13 -22 27 -22 31 0 5 -13 24
-30 43 -20 22 -30 44 -30 66 0 18 -11 54 -25 81 -15 30 -25 66 -25 92 0 24 -4
46 -10 49 -5 3 -10 28 -10 55 0 27 -4 52 -10 55 -5 3 -10 21 -10 40 0 19 -4
36 -10 40 -5 3 -7 12 -4 19 3 8 1 17 -5 21 -15 9 -14 68 1 83 9 9 9 15 0 24
-7 7 -12 22 -12 34 0 12 -7 27 -15 34 -31 26 -57 100 -35 100 6 0 10 9 10 20
0 11 3 20 8 20 17 0 32 60 32 130 0 64 -3 80 -20 95 -16 14 -20 31 -20 82 0
35 5 72 10 83 6 11 15 29 20 40 6 11 10 74 10 141 0 89 5 135 17 173 10 28 20
53 23 56 17 17 30 55 30 90 0 22 5 40 10 40 6 0 10 13 10 28 0 16 7 44 16 62
12 24 15 49 11 96 l-5 63 56 55 c53 53 56 57 60 116 2 33 8 63 13 66 5 3 9 15
9 28 0 13 9 31 20 41 16 15 20 31 20 85 0 55 4 70 21 86 16 14 20 28 18 66 -2
26 0 51 4 54 4 4 7 38 7 75 0 37 4 71 10 74 6 3 10 28 10 56 0 27 -4 49 -10
49 -5 0 -10 14 -10 30 0 29 1 30 49 30 39 0 53 5 75 26 14 15 26 33 26 40 0 8
5 14 10 14 6 0 10 20 10 44 0 25 5 48 10 51 6 3 10 14 10 24 0 25 34 61 57 61
34 0 63 41 61 88 -2 59 13 72 82 72 61 0 73 8 100 65 8 17 25 41 37 54 13 13
23 30 23 37 0 8 4 14 10 14 5 0 26 11 46 25 20 14 47 25 59 25 11 0 34 14 50
30 16 17 37 30 47 30 11 0 31 11 46 25 15 14 35 25 45 25 11 0 21 9 24 20 3
11 11 20 18 20 6 0 20 9 30 20 10 11 24 20 32 20 7 0 13 7 13 15 0 8 6 15 13
15 7 0 42 29 77 65 37 37 73 65 85 65 11 0 31 9 45 20 14 11 34 20 46 20 27 0
84 60 84 88 0 13 6 22 13 21 16 -3 67 10 89 22 10 5 27 9 38 9 11 0 20 5 20
10 0 6 6 10 13 10 15 0 77 64 77 79 0 6 5 11 10 11 6 0 10 8 10 18 0 20 37 38
96 48 33 5 53 18 94 60 29 30 58 54 64 54 6 0 17 14 24 30 13 28 17 30 72 30
32 0 62 -4 65 -10 3 -6 16 -10 28 -10 40 0 48 -41 47 -235 -1 -97 1 -179 4
-182 3 -4 6 -28 6 -54 0 -26 5 -51 10 -54 6 -3 10 -16 10 -28 0 -13 9 -29 20
-37 11 -8 20 -22 20 -32 0 -10 5 -18 10 -18 6 0 10 -11 10 -24 0 -14 5 -28 10
-31 6 -3 10 -28 10 -56 0 -32 4 -49 13 -49 6 0 23 -25 37 -55 14 -30 28 -55
31 -55 7 0 19 -52 20 -82 0 -10 5 -20 10 -24 7 -4 7 -10 0 -18 -10 -12 6 -76
22 -92 4 -4 7 -17 7 -29 0 -11 16 -36 35 -55 20 -19 35 -44 35 -57 0 -13 5
-23 10 -23 6 0 10 -11 10 -24 0 -14 5 -28 10 -31 6 -3 10 -16 11 -28 0 -12 8
-35 18 -52 14 -25 25 -31 61 -33 37 -3 47 1 76 29 33 32 34 34 34 120 0 48 -4
91 -10 94 -5 3 -10 16 -10 29 0 12 -5 27 -11 33 -6 6 -14 43 -17 82 -2 39 -9
71 -13 71 -5 0 -9 9 -9 20 0 13 -7 20 -20 20 -15 0 -20 7 -20 24 0 14 -4 28
-10 31 -5 3 -10 26 -10 50 0 24 -4 46 -10 50 -5 3 -7 12 -4 19 3 8 1 17 -5 21
-6 3 -11 17 -11 31 0 13 -4 24 -10 24 -5 0 -10 10 -10 23 0 13 -9 33 -21 45
-32 35 -21 56 29 60 37 3 42 6 42 28 0 13 5 24 10 24 15 0 13 383 -2 398 -10
10 -10 17 0 32 6 11 12 29 12 39 0 11 5 23 10 26 6 4 10 66 10 154 0 141 1
148 23 169 13 12 29 22 35 22 7 0 12 5 12 10 0 6 9 10 20 10 11 0 20 5 20 10
0 6 11 10 24 10 13 0 29 7 36 15 7 8 20 15 30 15 22 0 74 26 90 45 7 8 19 15
26 15 8 0 14 4 14 9 0 8 36 24 51 23 3 -1 23 17 44 39 30 30 47 39 72 39 18 0
33 4 33 9 0 5 11 12 25 15 14 4 25 11 25 16 0 6 5 10 12 10 7 0 29 17 50 37
32 31 45 37 85 38 31 0 48 5 51 15 12 35 30 40 136 40 81 0 106 3 106 13 0 16
62 77 78 77 7 0 12 5 12 10 0 6 23 10 50 10 48 0 50 -1 50 -27 1 -45 21 -63
72 -63 47 0 69 15 92 62 6 13 20 24 31 26 61 9 95 41 93 85 -1 29 -8 41 -39
64 -21 15 -39 32 -39 36 0 22 51 57 85 57 34 0 35 -1 35 -40 0 -22 6 -49 12
-60 10 -16 10 -24 0 -40 -6 -11 -12 -33 -12 -50 0 -23 4 -30 20 -30 11 0 20
-4 20 -10 0 -6 85 -10 234 -10 146 0 237 -4 241 -10 3 -5 37 -10 75 -10 38 0
72 5 75 10 3 6 15 10 26 10 29 0 27 -62 -3 -75 -32 -14 -36 -58 -7 -79 12 -8
25 -13 29 -11 6 4 135 5 338 3 51 0 95 -4 98 -9 3 -5 41 -9 84 -9 43 0 82 -4
85 -10 3 -5 42 -10 86 -10 46 0 79 -4 79 -10 0 -5 8 -10 18 -10 22 0 79 -27
87 -41 4 -5 46 -9 95 -9 71 0 97 -4 125 -20 25 -14 54 -20 95 -20 33 0 60 -4
60 -10 0 -6 30 -10 69 -10 39 0 73 -4 76 -10 3 -5 32 -10 64 -10 45 0 62 4 76
20 24 26 65 109 65 132 0 10 5 18 10 18 6 0 10 19 10 43 0 33 -6 48 -22 63
-33 28 -65 44 -87 44 -11 0 -23 5 -26 10 -3 6 -19 10 -35 10 -16 0 -32 5 -35
10 -4 6 -55 10 -119 10 -107 0 -114 1 -136 25 -16 17 -34 25 -57 25 -18 0 -33
3 -33 8 0 12 -54 34 -58 22 -5 -13 -52 -13 -52 0 0 6 -9 10 -20 10 -11 0 -20
4 -20 9 0 5 -13 12 -30 16 -16 4 -32 11 -35 16 -4 5 -33 9 -65 9 -32 0 -62 5
-65 10 -10 16 -56 12 -69 -6 -17 -23 -48 -24 -73 -1 -33 30 -29 59 8 76 25 11
36 11 50 2 29 -18 278 -15 317 4 23 12 71 16 217 16 102 1 189 -2 192 -5 10
-10 101 -7 108 3 3 6 19 17 37 25 34 17 138 22 138 6 0 -32 150 -56 178 -28
10 10 17 10 32 0 11 -6 29 -12 40 -12 11 0 20 -4 20 -10 0 -5 15 -10 34 -10
19 0 38 -4 41 -10 3 -5 26 -10 51 -10 l44 0 0 38 c0 44 -22 69 -85 96 -22 9
-48 21 -57 26 -10 6 -37 10 -61 10 -31 0 -49 6 -62 20 -16 17 -31 20 -120 20
-65 0 -105 -4 -113 -12 -8 -8 -12 -8 -12 -1 0 11 -21 20 -70 32 -18 4 -33 22
-53 64 -18 37 -34 57 -45 57 -10 0 -23 5 -30 12 -9 9 -15 9 -24 0 -15 -15 -74
-16 -83 -2 -3 6 -35 10 -70 10 -35 0 -67 -4 -70 -10 -4 -6 -57 -10 -126 -10
-73 0 -119 4 -119 10 0 6 -7 10 -15 10 -8 0 -15 -4 -15 -10 0 -6 -28 -10 -62
-10 -35 0 -80 -4 -100 -9 -20 -5 -40 -5 -45 0 -4 4 -45 9 -91 10 -45 1 -85 6
-88 10 -3 5 -29 9 -59 9 -43 0 -57 4 -68 21 -13 18 -18 19 -38 7 -37 -21 -69
-51 -69 -63 0 -15 -43 -55 -58 -55 -7 0 -12 -4 -12 -10 0 -17 -47 -11 -85 10
-39 22 -158 29 -170 10 -3 -5 -15 -10 -25 -10 -11 0 -34 -8 -53 -19 -18 -10
-46 -17 -62 -16 -15 2 -35 -1 -45 -7 -10 -7 -28 -8 -46 -3 -16 4 -36 8 -45 9
-10 1 -31 13 -48 29 -17 15 -36 27 -43 27 -19 0 41 30 61 31 9 0 26 13 39 29
22 28 22 29 4 62 -17 31 -22 33 -78 36 -32 2 -63 7 -69 13 -5 5 -30 9 -56 9
-29 0 -51 6 -59 15 -11 13 -5 15 43 15 31 0 59 -4 62 -10 3 -5 22 -10 41 -10
19 0 34 5 34 10 0 6 15 10 34 10 19 0 38 5 41 10 14 23 104 6 128 -25 4 -7 10
-7 15 0 4 6 19 16 33 24 25 13 29 11 69 -29 26 -26 47 -39 57 -36 8 3 26 6 39
6 13 0 24 6 24 13 0 17 63 44 68 29 2 -8 28 -12 71 -12 40 0 72 -5 79 -12 10
-10 17 -10 32 0 29 18 38 15 42 -14 2 -15 11 -32 20 -38 15 -9 24 -5 50 21 31
32 31 33 13 53 -20 22 -55 26 -73 8 -9 -9 -12 -2 -12 33 0 47 -14 67 -67 97
-27 14 -63 16 -63 2 0 -19 -25 -10 -35 13 -7 16 -20 23 -49 25 -23 2 -42 -2
-47 -9 -9 -16 -72 -16 -77 -1 -2 8 -41 12 -123 12 -65 0 -119 3 -119 8 0 12
-54 34 -58 22 -2 -5 -12 -10 -23 -10 -10 0 -19 -4 -19 -10 0 -5 -7 -10 -15
-10 -8 0 -15 8 -15 18 0 32 -108 60 -125 32 -3 -5 -15 -10 -26 -10 -10 0 -19
-4 -19 -10 0 -5 -15 -10 -34 -10 -19 0 -38 -4 -41 -10 -3 -5 -19 -10 -35 -10
-16 0 -32 -4 -35 -10 -7 -12 -45 -14 -45 -2 0 14 -54 32 -95 32 -40 0 -66 -10
-130 -50 -20 -12 -50 -19 -87 -19 -31 -1 -60 -5 -63 -11 -3 -5 -19 -10 -34
-10 -55 0 -82 -68 -41 -105 23 -20 26 -45 8 -63 -20 -20 -55 -14 -76 13 -20
26 -38 32 -44 16 -1 -5 -25 -11 -52 -13 -46 -3 -50 -1 -66 27 -9 17 -20 41
-23 55 -15 59 -133 93 -172 50 -11 -12 -31 -20 -50 -20 -51 0 -85 -21 -85 -52
0 -28 0 -28 69 -28 39 0 72 -4 75 -8 3 -5 19 -9 36 -10 39 -1 50 -9 50 -36 0
-27 -35 -72 -45 -56 -8 13 -182 13 -190 0 -3 -5 -17 -10 -31 -10 -13 0 -24 -4
-24 -10 0 -6 -42 -10 -105 -10 -85 0 -105 3 -105 14 0 8 5 18 10 21 6 3 10 17
10 29 0 31 16 42 70 51 68 11 90 36 90 106 0 32 5 61 10 64 6 3 10 15 10 26 0
29 19 58 80 122 33 35 63 57 76 57 13 0 24 8 27 19 3 12 15 21 33 23 17 2 33
12 40 25 21 44 46 62 87 65 33 2 43 8 57 33 12 21 25 31 46 33 41 4 94 31 101
50 9 25 45 62 60 62 7 0 13 5 13 10 0 6 8 10 18 10 9 0 23 9 30 20 7 12 16 18
21 15 5 -2 14 2 21 10 15 19 68 45 90 45 18 0 86 66 104 101 14 28 63 57 98
58 15 1 30 6 33 11 10 16 48 11 73 -8 l23 -18 -20 -19 c-12 -10 -21 -23 -21
-29 0 -16 -49 -36 -88 -36 -18 0 -40 -6 -48 -14 -22 -23 -18 -72 8 -90 25 -18
64 -21 73 -6 3 6 22 10 41 10 19 0 34 5 34 10 0 6 15 10 33 10 32 0 77 33 77
56 0 5 10 14 22 19 13 6 29 23 36 38 8 15 24 32 37 37 13 5 26 14 30 19 3 6
30 11 60 11 42 0 68 8 122 36 37 20 70 40 71 45 2 5 9 9 15 9 16 0 67 51 67
67 0 7 5 13 10 13 6 0 10 6 10 13 0 8 11 24 25 37 16 15 25 34 25 55 0 35 15
55 42 55 26 0 68 40 68 65 0 12 14 34 30 50 17 16 30 34 30 40 0 7 18 28 40
49 67 62 74 82 74 244 1 137 2 145 24 162 19 16 22 28 22 84 0 35 5 68 10 71
13 8 13 48 -1 62 -8 8 -8 13 0 17 14 9 15 103 1 111 -5 3 -10 22 -10 41 0 19
-4 34 -10 34 -5 0 -10 16 -10 35 0 23 -5 35 -13 35 -8 0 -28 16 -45 35 -26 28
-32 43 -32 78 0 31 -6 49 -20 62 -11 10 -17 21 -15 26 3 4 1 10 -5 14 -5 3
-10 19 -10 34 0 39 -22 81 -42 81 -10 0 -18 5 -18 10 0 6 -6 10 -12 10 -7 0
-21 14 -31 31 -13 24 -22 30 -38 26 -15 -4 -23 0 -26 14 -3 10 -12 19 -19 19
-8 0 -14 6 -14 13 0 31 -35 47 -102 47 -46 0 -69 4 -78 15 -7 8 -18 15 -25 15
-6 0 -20 9 -30 20 -10 11 -24 20 -30 20 -7 0 -15 9 -18 21 -4 17 -12 20 -39
18 -21 -2 -53 7 -88 24 -30 15 -62 27 -72 27 -10 0 -18 5 -18 10 0 6 -35 10
-85 10 -47 0 -94 5 -105 10 -11 6 -29 14 -40 20 -12 6 -21 6 -25 0z m-261
-299 c21 -23 14 -41 -15 -41 -16 0 -19 -7 -19 -40 l0 -40 50 0 c28 0 50 5 50
10 0 6 10 10 23 10 35 0 47 19 47 72 l0 48 103 0 c71 0 111 -5 131 -15 16 -9
55 -15 92 -15 34 0 66 -4 69 -10 3 -5 16 -10 27 -10 11 0 35 -16 54 -35 18
-19 42 -35 53 -35 11 0 23 -4 26 -10 3 -5 31 -10 61 -10 30 0 54 -4 54 -10 0
-5 7 -10 15 -10 8 0 15 -6 15 -14 0 -8 9 -21 19 -28 10 -8 21 -24 23 -38 2
-16 11 -26 28 -30 17 -4 28 -16 35 -40 13 -46 65 -150 86 -173 12 -13 16 -43
18 -131 2 -124 -5 -143 -43 -107 -12 12 -26 21 -32 21 -13 0 -34 49 -34 81 0
15 -5 31 -10 34 -6 4 -7 23 -4 45 5 30 2 42 -15 59 -12 12 -21 27 -21 34 0 8
-9 22 -20 32 -11 10 -20 22 -20 26 0 5 -14 22 -30 39 -27 27 -36 31 -77 28
-40 -3 -49 -7 -64 -33 -10 -16 -18 -40 -18 -51 -1 -12 -8 -35 -16 -50 -8 -16
-15 -39 -15 -51 0 -12 -4 -25 -10 -28 -5 -3 -10 -25 -10 -48 0 -31 -5 -45 -20
-55 -27 -17 -29 -114 -2 -134 27 -20 53 -85 46 -116 -11 -49 -28 -81 -46 -85
-11 -3 -18 -15 -18 -31 0 -14 -4 -26 -10 -26 -5 0 -10 -23 -10 -52 0 -49 -3
-55 -47 -100 -42 -43 -52 -48 -90 -48 -24 0 -43 -4 -43 -10 0 -5 -10 -10 -22
-10 -23 0 -68 -36 -68 -55 0 -6 -13 -24 -30 -40 -16 -16 -30 -35 -30 -44 0
-21 -40 -61 -61 -61 -9 0 -22 -7 -29 -15 -7 -8 -18 -15 -25 -15 -6 0 -20 -9
-30 -20 -10 -11 -24 -20 -31 -20 -7 0 -19 -12 -26 -26 -7 -15 -17 -26 -23 -26
-15 1 -45 -29 -45 -45 0 -7 -6 -13 -13 -13 -7 0 -26 -13 -42 -30 -15 -16 -40
-32 -55 -35 -16 -3 -36 -15 -46 -26 -9 -10 -22 -19 -28 -19 -7 0 -18 -9 -26
-20 -8 -11 -19 -20 -25 -20 -7 0 -22 -11 -35 -25 -13 -14 -29 -25 -35 -25 -6
0 -26 -16 -45 -35 -19 -19 -44 -35 -56 -35 -12 0 -27 -7 -34 -15 -16 -19 -68
-45 -92 -45 -10 0 -18 -3 -18 -8 0 -11 -58 -34 -69 -28 -5 4 -12 2 -16 -4 -3
-5 -15 -10 -26 -10 -24 0 -49 -22 -49 -43 0 -8 -9 -17 -20 -20 -11 -3 -20 -12
-20 -21 0 -12 -10 -16 -40 -16 l-40 0 0 55 c0 30 5 55 10 55 19 0 11 107 -10
145 -11 20 -20 47 -20 60 0 24 -17 64 -32 76 -5 3 -11 33 -14 67 -4 35 -11 65
-15 68 -5 3 -9 17 -9 31 0 16 -7 27 -20 30 -13 3 -20 14 -20 29 0 12 -4 26
-10 29 -5 3 -10 17 -10 30 0 13 -4 27 -10 30 -5 3 -10 44 -10 90 0 46 -4 86
-9 89 -4 3 -6 16 -4 29 3 17 -4 32 -26 53 -17 16 -31 34 -31 40 0 6 -9 19 -19
28 -11 10 -22 30 -26 44 -9 37 -34 62 -62 62 -15 0 -27 8 -32 23 -5 13 -16 29
-25 36 -9 7 -16 19 -16 27 0 7 -12 19 -27 26 -34 16 -64 68 -50 86 5 6 27 12
49 12 31 0 45 6 60 25 11 14 30 25 43 25 19 0 29 10 44 43 25 54 37 64 81 69
29 2 35 7 38 30 2 14 10 32 18 38 8 7 14 19 14 26 0 11 21 14 98 14 l97 0 25
55 25 55 67 0 c37 0 70 5 73 10 3 6 15 10 26 10 11 0 29 9 40 19 12 11 35 22
53 25 18 4 43 18 56 31 27 29 75 55 101 55 10 0 21 5 24 10 4 6 11 8 16 4 6
-3 20 2 32 12 30 26 64 44 82 44 18 0 51 18 79 43 11 9 23 17 28 17 4 0 8 11
8 25 0 14 5 25 10 25 6 0 10 6 10 13 0 38 56 49 84 18z m-887 -282 c7 -7 1
-19 -19 -41 -28 -30 -29 -30 -48 -13 -26 24 -25 31 8 48 34 19 45 20 59 6z
m2023 -648 c0 -11 -4 -23 -10 -26 -5 -3 -10 -17 -10 -31 0 -31 -22 -31 -37 1
-6 14 -7 25 -2 25 5 0 9 11 9 25 0 20 5 25 25 25 18 0 25 -5 25 -19z m-31
-173 c15 -34 6 -61 -23 -66 -11 -3 -16 4 -16 20 0 13 -5 29 -11 35 -8 8 -8 15
2 27 21 23 33 19 48 -16z m-229 -309 c0 -15 -26 -39 -43 -39 -17 0 -26 18 -19
38 5 15 62 16 62 1z m-110 -118 c0 -10 -7 -24 -15 -31 -13 -11 -15 -8 -15 19
0 21 5 31 15 31 8 0 15 -8 15 -19z m-600 -1259 c0 -47 57 -111 93 -104 17 4 5
-14 -15 -23 -27 -12 -35 -49 -17 -82 12 -22 18 -24 72 -21 52 3 63 7 81 31 19
26 19 29 3 56 -9 16 -17 31 -17 33 0 1 19 4 42 5 24 1 60 5 80 8 21 4 46 4 55
0 10 -5 21 -8 24 -7 4 1 15 -8 24 -18 10 -11 24 -20 30 -20 7 0 18 -7 25 -15
10 -13 9 -15 -9 -15 -27 0 -71 -42 -71 -68 0 -20 -30 -51 -72 -71 -23 -12 -30
-12 -43 -1 -12 10 -19 10 -27 2 -15 -15 -48 -16 -48 -2 0 17 -64 11 -108 -10
-22 -11 -58 -20 -80 -20 -28 0 -45 -7 -62 -25 -23 -24 -28 -25 -146 -25 -71 0
-125 -4 -129 -10 -3 -5 -22 -10 -42 -10 -51 0 -83 -32 -83 -83 0 -30 6 -46 25
-63 28 -26 31 -34 12 -34 -7 0 -19 -16 -27 -35 -11 -28 -19 -35 -42 -35 -27 0
-28 2 -28 47 0 49 -21 85 -83 144 -49 47 -107 33 -107 -24 0 -44 -15 -57 -67
-57 -65 0 -123 -37 -123 -79 0 -13 12 -38 27 -53 27 -28 53 -37 53 -18 0 6 6
10 13 10 7 0 23 9 35 21 28 26 42 17 42 -27 0 -48 -43 -74 -122 -74 -32 0 -58
-4 -58 -10 0 -20 -27 -9 -60 25 -19 19 -39 35 -46 35 -6 0 -17 7 -24 15 -14
17 -67 45 -87 45 -7 0 -13 3 -14 8 -4 42 -3 64 3 68 4 3 8 36 8 74 0 38 5 72
10 75 6 3 10 24 10 45 0 21 5 42 10 45 6 3 10 16 10 29 0 22 25 50 67 74 14 7
61 12 121 12 92 0 100 2 122 25 13 14 33 25 45 25 11 0 27 9 35 20 8 11 22 20
32 20 10 0 18 5 18 10 0 6 13 10 29 10 17 0 33 -4 36 -10 3 -5 21 -10 40 -10
19 0 37 5 40 10 3 6 15 10 26 10 10 0 19 -4 19 -10 0 -5 13 -10 29 -10 17 0
33 5 36 10 4 6 66 10 154 10 145 0 148 0 171 25 21 22 22 29 12 45 -7 11 -12
31 -12 45 0 20 5 25 25 25 18 0 25 -5 25 -18z m820 -397 c0 -8 -7 -15 -15 -15
-8 0 -15 7 -15 15 0 8 7 15 15 15 8 0 15 -7 15 -15z m-1060 -168 c0 -48 -47
-66 -88 -34 -19 15 24 57 60 57 23 0 28 -4 28 -23z m-1473 -28 c8 -8 7 -18 -2
-37 -20 -41 -21 -113 -2 -151 22 -43 23 -134 2 -151 -8 -7 -15 -23 -15 -36 0
-13 -4 -24 -10 -24 -5 0 -10 -11 -10 -24 0 -13 -7 -29 -15 -36 -19 -15 -45
-68 -45 -90 0 -20 -26 -23 -57 -8 -19 9 -23 20 -23 54 0 24 5 45 13 48 10 5
10 7 0 12 -7 3 -13 12 -13 19 0 8 -11 22 -24 33 l-25 19 45 44 c24 24 44 47
44 52 0 17 -29 37 -53 37 -14 0 -27 6 -30 13 -4 10 -7 10 -18 0 -8 -8 -41 -13
-86 -13 -66 0 -76 -3 -97 -25 -15 -16 -34 -25 -55 -25 -39 0 -39 9 -1 45 17
16 30 38 30 49 0 23 27 56 46 56 7 0 19 -6 26 -12 36 -33 88 -49 88 -28 0 6 7
10 16 10 9 0 18 9 21 20 3 11 8 20 12 20 3 0 6 15 6 33 0 28 5 35 49 57 27 14
51 31 54 38 5 15 114 16 129 1z m-407 -359 c0 -5 20 -10 44 -10 25 0 48 -4 51
-10 3 -5 15 -10 26 -10 16 0 19 -4 13 -22 -3 -13 -11 -24 -15 -26 -5 -2 -9
-12 -9 -22 0 -10 -7 -20 -15 -24 -10 -3 -15 -19 -15 -44 0 -48 -31 -92 -65
-92 -13 0 -27 -4 -30 -10 -3 -5 -15 -10 -26 -10 -24 0 -26 36 -3 62 14 14 14
20 4 33 -16 20 -74 19 -91 -1 -7 -9 -24 -20 -37 -25 -13 -5 -26 -18 -29 -29
-3 -11 -11 -20 -17 -20 -17 0 -50 -39 -67 -77 -9 -21 -21 -33 -33 -33 -11 0
-30 -10 -43 -22 -19 -18 -23 -32 -23 -80 0 -41 -4 -58 -13 -58 -7 0 -26 -13
-42 -30 -42 -44 -105 -35 -105 16 0 19 -37 64 -52 64 -18 0 -38 29 -38 53 0
24 31 59 63 70 10 4 16 11 13 16 -8 12 24 38 57 46 15 4 30 11 33 16 3 5 18 9
33 9 17 0 37 10 52 26 13 14 33 30 44 35 11 5 34 18 50 28 17 11 46 20 65 20
29 1 46 12 107 73 40 40 73 78 73 85 0 7 9 13 20 13 11 0 20 -4 20 -10z m-661
-592 c8 -18 21 -41 29 -50 14 -17 13 -18 -19 -18 -51 0 -87 20 -91 51 -6 39 1
49 35 49 27 0 35 -6 46 -32z m157 -142 c24 -24 16 -49 -32 -98 -37 -39 -53
-48 -80 -48 -30 0 -34 3 -34 28 0 19 7 30 22 37 13 6 28 20 34 32 28 57 62 76
90 49z m-296 -62 c0 -8 -10 -14 -25 -14 -27 0 -32 13 -12 34 14 16 37 3 37
-20z m-150 5 c0 -6 13 -23 29 -39 23 -20 27 -30 18 -39 -6 -6 -16 -11 -22 -11
-6 0 -24 -14 -40 -30 -33 -34 -79 -60 -107 -60 -10 0 -18 -7 -18 -16 0 -24
-24 -42 -61 -46 -30 -3 -34 0 -37 23 -2 20 2 28 17 32 12 3 25 16 30 29 5 13
16 30 25 37 9 7 16 18 16 24 0 15 41 57 55 57 6 0 22 11 35 25 24 25 60 34 60
14z m188 -142 c17 -11 15 -37 -3 -37 -8 0 -15 -4 -15 -10 0 -5 -16 -10 -35
-10 -33 0 -35 1 -23 22 24 42 47 52 76 35z m-1081 -179 c-3 -8 -6 -5 -6 6 -1
11 2 17 5 13 3 -3 4 -12 1 -19z m883 -45 c0 -15 -12 -36 -30 -53 -16 -15 -30
-37 -30 -47 0 -30 -70 -83 -109 -83 -11 0 -22 -3 -25 -8 -2 -4 -25 -6 -50 -4
-43 4 -46 6 -46 32 0 19 6 29 20 33 11 3 20 12 20 21 0 9 5 16 12 16 7 0 36
23 64 51 64 63 87 75 136 71 33 -4 38 -7 38 -29z m-845 -483 c-13 -20 -25 -9
-25 22 0 32 0 32 16 10 8 -12 12 -27 9 -32z m-475 -55 c0 -16 -6 -25 -15 -25
-18 0 -19 4 -3 30 16 26 18 25 18 -5z m171 -48 c-11 -12 -23 -19 -26 -16 -8 8
28 48 38 42 5 -3 0 -15 -12 -26z m199 -582 c0 -8 -7 -15 -15 -15 -8 0 -15 7
-15 15 0 8 7 15 15 15 8 0 15 -7 15 -15z m-298 -122 c23 -21 23 -43 -1 -43
-13 0 -20 9 -23 30 -5 34 -2 36 24 13z m296 -24 c-2 -6 -8 -10 -13 -10 -5 0
-11 4 -13 10 -2 6 4 11 13 11 9 0 15 -5 13 -11z m-218 -64 c0 -16 -6 -25 -15
-25 -18 0 -20 21 -3 38 17 17 18 16 18 -13z m-70 -665 c0 -5 -4 -10 -10 -10
-5 0 -10 5 -10 10 0 6 5 10 10 10 6 0 10 -4 10 -10z m-83 -372 c-3 -8 -6 -5
-6 6 -1 11 2 17 5 13 3 -3 4 -12 1 -19z m-345 -53 c0 -5 -5 -11 -11 -13 -6 -2
-11 4 -11 13 0 9 5 15 11 13 6 -2 11 -8 11 -13z m368 -20 c0 -19 5 -35 10 -35
6 0 10 -18 10 -40 0 -36 -2 -40 -25 -40 -22 0 -25 4 -25 34 0 19 -6 36 -12 39
-10 4 -10 7 0 18 6 7 12 23 12 36 0 14 6 23 15 23 10 0 15 -11 15 -35z m-34
-180 c24 -1 30 -5 32 -28 2 -15 8 -27 15 -27 8 0 8 -3 -1 -12 -7 -7 -12 -20
-12 -30 0 -11 -5 -15 -15 -12 -8 4 -15 15 -15 25 0 10 -4 19 -10 19 -5 0 -10
6 -10 14 0 7 -7 19 -15 26 -8 7 -15 24 -14 39 0 23 1 24 8 6 5 -13 17 -20 37
-20z m7998 -347 c8 -14 4 -24 -23 -52 -19 -20 -38 -33 -43 -30 -13 8 -10 78 4
92 17 17 48 11 62 -10z m-7946 -160 c-3 -7 -17 -13 -33 -13 -16 0 -30 6 -32
13 -3 8 7 12 32 12 25 0 35 -4 33 -12z m7930 -40 c14 -14 16 -28 2 -28 -5 0
-14 9 -20 20 -12 22 -1 27 18 8z m-8258 -22 c0 -2 -7 -9 -15 -16 -12 -10 -15
-10 -15 4 0 9 7 16 15 16 8 0 15 -2 15 -4z m323 -105 c14 -2 7 -51 -8 -51 -8
0 -15 4 -15 9 0 5 -9 11 -20 14 -11 3 -20 12 -20 20 0 15 11 16 63 8z m-313
-346 c10 -13 9 -15 -9 -15 -11 0 -21 -4 -21 -10 0 -5 -11 -12 -25 -16 -14 -3
-25 -10 -25 -15 0 -5 -7 -9 -15 -9 -29 0 -15 35 23 56 46 27 56 28 72 9z m433
-117 c8 -29 1 -38 -29 -38 -26 0 -33 27 -12 48 18 18 35 14 41 -10z m6421 -14
c18 -7 23 -64 6 -64 -5 0 -10 -9 -10 -19 0 -11 5 -23 10 -26 16 -10 12 -85 -5
-85 -8 0 -25 -11 -39 -25 -30 -30 -37 -31 -64 -6 -30 25 -30 91 -2 111 11 8
20 19 20 26 0 6 10 19 21 30 12 10 25 29 30 42 9 24 10 25 33 16z m-6686 -123
c2 -13 -1 -28 -7 -34 -14 -14 -51 19 -51 45 0 31 54 21 58 -11z m5904 -1 c15
0 4 -243 -11 -248 -7 -2 -11 -40 -11 -103 0 -59 -4 -99 -10 -99 -5 0 -10 -7
-10 -16 0 -9 -8 -24 -18 -33 -10 -9 -22 -23 -26 -31 -33 -69 -100 -140 -133
-140 -13 0 -23 -4 -23 -10 0 -5 -6 -10 -13 -10 -7 0 -23 -9 -35 -20 -17 -16
-26 -18 -44 -10 -34 16 -65 90 -38 90 6 0 13 -7 16 -15 7 -18 56 -20 87 -2 44
24 87 71 87 94 0 13 5 23 10 23 6 0 10 14 10 30 0 17 -4 30 -10 30 -6 0 -10
26 -10 59 0 33 5 63 10 66 6 3 10 23 10 44 0 22 6 44 15 51 8 7 15 18 15 25 0
7 6 18 14 24 7 6 11 22 9 35 -3 13 0 27 6 30 6 4 11 18 11 31 0 13 5 27 10 30
6 3 10 16 10 27 0 27 30 60 48 53 7 -3 18 -5 24 -5z m-6418 -66 c6 -10 16 -22
21 -26 13 -10 -7 -42 -29 -46 -38 -8 -64 56 -34 86 15 15 29 11 42 -14z m7826
-104 c0 -5 -5 -10 -11 -10 -5 0 -7 5 -4 10 3 6 8 10 11 10 2 0 4 -4 4 -10z
m-7363 -312 c-3 -8 -6 -5 -6 6 -1 11 2 17 5 13 3 -3 4 -12 1 -19z m5627 -15
c3 -10 9 -24 12 -30 4 -9 -5 -13 -30 -13 -33 0 -36 2 -36 30 0 25 4 30 24 30
14 0 26 -7 30 -17z m-178 -238 c8 -19 21 -35 29 -35 9 0 15 -9 15 -23 0 -26
-25 -83 -41 -93 -6 -3 -14 -17 -19 -30 -8 -21 -16 -24 -56 -24 -33 0 -51 5
-60 18 -17 21 -18 74 -2 90 8 8 8 15 -1 26 -26 31 46 105 102 106 11 0 24 -13
33 -35z m1743 -9 c27 -33 20 -94 -15 -133 -13 -13 -128 -22 -140 -11 -12 12 5
38 31 48 14 5 25 16 25 23 0 7 11 24 25 37 14 13 25 29 25 37 0 17 34 17 49
-1z m-719 -155 c23 -45 -4 -60 -48 -27 -30 22 -30 22 -9 33 33 16 45 15 57 -6z
m-1470 -90 c0 -10 -7 -24 -15 -31 -13 -11 -15 -8 -15 19 0 21 5 31 15 31 8 0
15 -8 15 -19z m-4395 -20 c25 -15 30 -24 30 -57 0 -33 -3 -39 -24 -42 -13 -2
-28 1 -34 7 -6 6 -20 11 -31 11 -20 0 -46 38 -46 65 0 36 56 45 105 16z m5435
-19 c0 -22 -19 -42 -40 -42 -29 0 -81 -31 -90 -54 -4 -11 -17 -30 -29 -40 -20
-18 -22 -18 -40 -2 -17 16 -18 20 -4 47 8 17 21 33 29 36 8 3 14 18 14 33 0
35 8 38 93 39 58 1 67 -1 67 -17z m-990 -233 c0 -27 -2 -29 -15 -15 -8 8 -15
22 -15 30 0 9 7 16 15 16 10 0 15 -10 15 -31z m-1720 -170 c0 -5 -10 -9 -21
-9 -18 0 -19 2 -9 15 12 15 30 12 30 -6z m2170 -109 c0 -5 -2 -10 -4 -10 -3 0
-8 5 -11 10 -3 6 -1 10 4 10 6 0 11 -4 11 -10z m559 -62 l35 -31 -32 -28 c-18
-16 -36 -29 -40 -29 -12 0 -32 53 -32 87 0 43 23 43 69 1z m-1009 -192 c0 -33
-25 -53 -45 -36 -8 7 -15 23 -15 36 0 20 5 24 30 24 25 0 30 -4 30 -24z m162
-11 c0 -5 -5 -11 -11 -13 -6 -2 -11 4 -11 13 0 9 5 15 11 13 6 -2 11 -8 11
-13z m-513 -148 c15 -19 4 -27 -35 -27 -27 0 -31 3 -27 20 6 23 45 27 62 7z"/>
<path d="M10917 10293 c3 -7 6 -13 8 -13 2 0 5 6 8 13 3 8 -1 14 -8 14 -7 0
-11 -6 -8 -14z"/>
<path d="M10914 10238 c1 -18 5 -36 11 -40 6 -5 6 -8 -2 -8 -9 0 -12 -46 -12
-175 1 -103 5 -173 10 -169 5 3 9 0 9 -5 0 -6 -4 -11 -10 -11 -5 0 -10 -13
-10 -30 0 -17 5 -30 13 -30 9 0 9 -2 -1 -9 -11 -7 -11 -9 2 -14 13 -5 15 0 13
27 -1 20 -6 31 -12 28 -5 -3 -5 1 2 9 16 20 16 132 0 123 -9 -5 -9 -3 1 7 6 7
12 33 12 57 0 32 -3 41 -12 36 -10 -6 -10 -5 -1 7 9 11 11 46 9 115 -5 119 -4
114 -14 114 -5 0 -8 -15 -8 -32z"/>
<path d="M10912 9708 c1 -18 6 -36 12 -40 8 -5 7 -8 -1 -8 -7 0 -13 -9 -13
-19 0 -11 6 -22 13 -24 10 -4 10 -6 0 -6 -17 -1 -17 -21 0 -21 17 0 18 141 0
147 -7 3 -11 -8 -11 -29z"/>
<path d="M10913 9541 c1 -21 5 -37 10 -34 4 2 7 -1 7 -6 0 -6 -4 -11 -9 -11
-15 0 -9 -39 6 -45 10 -3 11 0 3 15 -5 10 -6 21 -1 24 5 3 7 23 6 43 -4 54 -4
53 -14 53 -5 0 -9 -18 -8 -39z"/>
<path d="M10930 9421 c0 -7 -5 -9 -12 -5 -7 5 -8 3 -3 -5 5 -9 10 -10 18 -2 6
6 8 14 4 18 -4 3 -7 1 -7 -6z"/>
<path d="M10913 9373 c0 -9 4 -10 14 -2 7 6 13 12 13 14 0 1 -6 2 -13 2 -8 0
-14 -6 -14 -14z"/>
<path d="M10915 9340 c3 -5 8 -10 11 -10 2 0 4 5 4 10 0 6 -5 10 -11 10 -5 0
-7 -4 -4 -10z"/>
<path d="M6155 8797 c-35 -44 -36 -57 -10 -83 25 -25 27 -25 60 -9 29 13 35
22 35 46 0 17 -6 37 -14 45 -18 17 -57 18 -71 1z"/>
<path d="M8278 8633 c-12 -3 -18 -14 -18 -34 0 -24 4 -29 25 -30 14 -1 31 -2
38 -3 16 -3 37 13 37 28 -1 30 -43 50 -82 39z"/>
<path d="M7400 8592 c0 -19 18 -42 32 -42 4 0 8 14 8 30 0 23 -4 30 -20 30
-13 0 -20 -7 -20 -18z"/>
<path d="M9039 8542 c-24 -17 -24 -34 -1 -55 37 -33 122 -12 122 30 0 34 -84
51 -121 25z"/>
<path d="M7510 8530 c0 -11 4 -20 9 -20 11 0 22 26 14 34 -12 12 -23 5 -23
-14z"/>
<path d="M9531 8016 c-7 -9 -14 -30 -14 -48 -2 -30 1 -33 31 -36 l33 -3 -3 48
c-3 51 -23 68 -47 39z"/>
<path d="M9825 7960 c-3 -5 -28 -10 -54 -10 -52 0 -71 -12 -71 -48 0 -27 50
-82 74 -82 9 0 16 -8 16 -20 0 -12 7 -20 16 -20 9 0 25 -12 37 -26 18 -24 25
-26 78 -22 56 4 105 30 94 49 -3 4 -1 10 5 14 19 12 12 93 -10 113 -53 49
-167 81 -185 52z"/>
<path d="M10090 7785 c-14 -17 -5 -48 13 -43 14 5 23 58 9 58 -5 0 -15 -7 -22
-15z"/>
<path d="M10380 7641 c-7 -11 -25 -23 -39 -26 -14 -3 -45 -25 -68 -48 -36 -34
-43 -48 -43 -79 0 -33 3 -38 24 -38 15 0 26 -7 29 -19 6 -25 62 -51 109 -51
34 0 38 -3 38 -25 0 -14 -4 -25 -10 -25 -17 0 -11 -36 10 -55 10 -9 18 -22 17
-28 -1 -7 9 -13 23 -15 26 -4 92 -60 85 -72 -11 -17 34 -41 72 -38 37 3 38 4
41 43 2 22 9 46 15 54 9 11 9 15 0 18 -7 3 -13 17 -13 32 0 46 -61 151 -87
151 -5 0 -29 20 -53 45 -26 27 -53 45 -66 45 -33 0 -41 20 -16 41 25 19 30 77
10 97 -18 18 -62 14 -78 -7z"/>
<path d="M10615 7070 c-3 -5 -22 -10 -41 -10 -19 0 -34 -4 -34 -10 0 -5 -9
-10 -19 -10 -14 0 -21 -8 -23 -27 -2 -17 -12 -32 -26 -39 -13 -6 -22 -14 -20
-16 2 -3 -3 -12 -10 -21 -8 -9 -10 -22 -6 -29 5 -7 8 -22 9 -33 0 -12 8 -21
20 -23 20 -3 53 -16 87 -33 27 -14 182 -11 196 3 13 13 16 80 5 92 -5 4 -8 11
-9 14 0 4 -4 14 -7 22 -4 8 -8 40 -9 70 l-3 55 -52 3 c-28 2 -54 -2 -58 -8z"/>
</g>
</svg>
